<svg width="30" height="31" viewBox="0 0 30 31" fill="none" xmlns="http://www.w3.org/2000/svg">
<path fill-rule="evenodd" clip-rule="evenodd" d="M15 25.6274C20.5229 25.6274 25 21.1503 25 15.6274C25 10.1046 20.5229 5.62744 15 5.62744C9.47715 5.62744 5 10.1046 5 15.6274C5 21.1503 9.47715 25.6274 15 25.6274ZM15 28.1274C21.9035 28.1274 27.5 22.5309 27.5 15.6274C27.5 8.72388 21.9035 3.12744 15 3.12744C8.09644 3.12744 2.5 8.72388 2.5 15.6274C2.5 22.5309 8.09644 28.1274 15 28.1274Z" fill="#04265F"/>
<path d="M15 13.1274C15 12.4371 15.5596 11.8774 16.25 11.8774H17.5C18.1904 11.8774 18.75 11.3178 18.75 10.6274C18.75 9.93709 18.1904 9.37744 17.5 9.37744H16.25C14.1789 9.37744 12.5 11.0564 12.5 13.1274V15.6274H11.25C10.5597 15.6274 10 16.1871 10 16.8774C10 17.5678 10.5596 18.1274 11.25 18.1274H12.5V25.6274C12.5 26.3178 13.0596 26.8774 13.75 26.8774C14.4404 26.8774 15 26.3178 15 25.6274V18.1274H17.5C18.1904 18.1274 18.75 17.5678 18.75 16.8774C18.75 16.1871 18.1904 15.6274 17.5 15.6274H15V13.1274Z" fill="#04265F"/>
</svg>
