<svg width="30" height="31" viewBox="0 0 30 31" fill="none" xmlns="http://www.w3.org/2000/svg">
<path fill-rule="evenodd" clip-rule="evenodd" d="M20 5.62744H10C7.23857 5.62744 5 7.86602 5 10.6274V20.6274C5 23.3888 7.23857 25.6274 10 25.6274H20C22.7614 25.6274 25 23.3888 25 20.6274V10.6274C25 7.86602 22.7614 5.62744 20 5.62744ZM10 3.12744C5.85786 3.12744 2.5 6.4853 2.5 10.6274V20.6274C2.5 24.7696 5.85786 28.1274 10 28.1274H20C24.1421 28.1274 27.5 24.7696 27.5 20.6274V10.6274C27.5 6.4853 24.1421 3.12744 20 3.12744H10Z" fill="#04265F"/>
<path d="M21.25 10.6274C21.9404 10.6274 22.5 10.0678 22.5 9.37744C22.5 8.68709 21.9404 8.12744 21.25 8.12744C20.5596 8.12744 20 8.68709 20 9.37744C20 10.0678 20.5596 10.6274 21.25 10.6274Z" fill="#04265F"/>
<path fill-rule="evenodd" clip-rule="evenodd" d="M21.25 15.6274C21.25 19.0792 18.4517 21.8774 15 21.8774C11.5482 21.8774 8.75 19.0792 8.75 15.6274C8.75 12.1757 11.5482 9.37744 15 9.37744C18.4517 9.37744 21.25 12.1757 21.25 15.6274ZM18.75 15.6274C18.75 17.6986 17.0711 19.3774 15 19.3774C12.9289 19.3774 11.25 17.6986 11.25 15.6274C11.25 13.5563 12.9289 11.8774 15 11.8774C17.0711 11.8774 18.75 13.5563 18.75 15.6274Z" fill="#04265F"/>
</svg>
