<svg width="30" height="31" viewBox="0 0 30 31" fill="none" xmlns="http://www.w3.org/2000/svg">
<path fill-rule="evenodd" clip-rule="evenodd" d="M22.5 5.62744H7.5C6.11929 5.62744 5 6.74673 5 8.12744V23.1274C5 24.5082 6.11929 25.6274 7.5 25.6274H22.5C23.8808 25.6274 25 24.5082 25 23.1274V8.12744C25 6.74673 23.8808 5.62744 22.5 5.62744ZM7.5 3.12744C4.73857 3.12744 2.5 5.36602 2.5 8.12744V23.1274C2.5 25.8888 4.73857 28.1274 7.5 28.1274H22.5C25.2614 28.1274 27.5 25.8888 27.5 23.1274V8.12744C27.5 5.36602 25.2614 3.12744 22.5 3.12744H7.5Z" fill="#04265F"/>
<path d="M8.75 10.6274C9.44035 10.6274 10 10.0678 10 9.37744C10 8.68709 9.44035 8.12744 8.75 8.12744C8.05965 8.12744 7.5 8.68709 7.5 9.37744C7.5 10.0678 8.05965 10.6274 8.75 10.6274Z" fill="#04265F"/>
<path d="M8.75 13.1274C8.05965 13.1274 7.5 13.6871 7.5 14.3774V21.8774C7.5 22.5678 8.05965 23.1274 8.75 23.1274C9.44035 23.1274 10 22.5678 10 21.8774V14.3774C10 13.6871 9.44035 13.1274 8.75 13.1274Z" fill="#04265F"/>
<path d="M17.5 15.6274C16.1193 15.6274 15 16.7467 15 18.1274V21.8774C15 22.5678 14.4404 23.1274 13.75 23.1274C13.0596 23.1274 12.5 22.5678 12.5 21.8774V14.3774C12.5 13.6871 13.0596 13.1274 13.75 13.1274C14.2567 13.1274 14.693 13.4289 14.8892 13.8623C15.6491 13.3962 16.5433 13.1274 17.5 13.1274C20.2614 13.1274 22.5 15.3661 22.5 18.1274V21.8774C22.5 22.5678 21.9404 23.1274 21.25 23.1274C20.5596 23.1274 20 22.5678 20 21.8774V18.1274C20 16.7467 18.8807 15.6274 17.5 15.6274Z" fill="#04265F"/>
</svg>
