<svg width="30" height="31" viewBox="0 0 30 31" fill="none" xmlns="http://www.w3.org/2000/svg">
<path fill-rule="evenodd" clip-rule="evenodd" d="M3.97771 18.1272C1.91056 18.1331 0.576162 20.4879 1.84966 22.2721C3.67343 24.8269 6.98062 26.8774 12.5019 26.8774C21.0583 26.8774 27.9265 19.9046 26.965 11.6663L28.3736 8.84907C29.3505 6.89529 27.653 4.67272 25.511 5.10112L23.65 5.4733C23.1566 5.21298 22.646 5.01653 22.2096 4.8742C21.3591 4.59684 20.3298 4.37744 19.3769 4.37744C17.6653 4.37744 16.188 4.81658 15.014 5.69735C13.8534 6.56824 13.1996 7.71275 12.8409 8.76375C12.6755 9.2482 12.5654 9.73412 12.4947 10.2005C11.8306 9.99148 11.1535 9.71027 10.4906 9.36688C8.98658 8.58784 7.7704 7.60022 7.08433 6.73433C5.9333 5.28157 3.494 5.38928 2.63802 7.2777C1.4316 9.93928 1.76253 13.0943 2.84696 15.6436C3.21043 16.4979 3.68325 17.3426 4.26088 18.1253C4.162 18.1264 4.0674 18.1269 3.97771 18.1272ZM12.5018 24.3774C7.6726 24.3774 5.17551 22.6283 3.88432 20.8196C3.82631 20.7383 3.88481 20.6274 3.98465 20.6272C5.2982 20.6234 7.99445 20.5613 9.7727 19.5206C9.86466 19.4667 9.84442 19.3311 9.74342 19.2972C5.59821 17.9034 3.24192 12.0007 4.9149 8.30982C4.95326 8.22519 5.06701 8.21403 5.12472 8.28687C7.03581 10.6989 11.2143 13.0614 14.8498 13.1261C14.9286 13.1274 14.9883 13.0558 14.9763 12.9779C14.8298 12.0281 14.2704 6.87744 19.3768 6.87744C20.5961 6.87744 22.4104 7.47223 23.0786 8.08157C23.1095 8.10973 23.1514 8.12252 23.1924 8.11432L26.0011 7.55257C26.1031 7.53217 26.184 7.638 26.1375 7.73104L24.3954 11.2152C24.3833 11.2394 24.3795 11.2671 24.3841 11.2938C25.6043 18.1524 19.9868 24.3774 12.5018 24.3774Z" fill="#04265F"/>
</svg>
