<svg width="31" height="30" viewBox="0 0 31 30" fill="none" xmlns="http://www.w3.org/2000/svg">
<g clip-path="url(#clip0_2476_45408)">
<path fill-rule="evenodd" clip-rule="evenodd" d="M25.666 7.5H5.66602C4.2853 7.5 3.16602 8.61929 3.16602 10V20C3.16602 21.3807 4.2853 22.5 5.66602 22.5H25.666C27.0467 22.5 28.166 21.3807 28.166 20V10C28.166 8.61929 27.0467 7.5 25.666 7.5ZM5.66602 5C2.90459 5 0.666016 7.23858 0.666016 10V20C0.666016 22.7614 2.90459 25 5.66602 25H25.666C28.4274 25 30.666 22.7614 30.666 20V10C30.666 7.23858 28.4274 5 25.666 5H5.66602Z" fill="#D48305"/>
<path d="M29.416 12.5C29.416 13.1904 28.8564 13.75 28.166 13.75C24.7142 13.75 21.916 10.9518 21.916 7.5C21.916 6.80964 22.4757 6.25 23.166 6.25C23.8564 6.25 24.416 6.80964 24.416 7.5C24.416 9.57107 26.0949 11.25 28.166 11.25C28.8564 11.25 29.416 11.8096 29.416 12.5Z" fill="#D48305"/>
<path d="M3.16602 16.25C2.47566 16.25 1.91602 16.8096 1.91602 17.5C1.91602 18.1904 2.47566 18.75 3.16602 18.75C5.23708 18.75 6.91602 20.4289 6.91602 22.5C6.91602 23.1904 7.47566 23.75 8.16602 23.75C8.85637 23.75 9.41602 23.1904 9.41602 22.5C9.41602 19.0482 6.6178 16.25 3.16602 16.25Z" fill="#D48305"/>
<path d="M28.166 16.25C28.8564 16.25 29.416 16.8096 29.416 17.5C29.416 18.1904 28.8564 18.75 28.166 18.75C26.0949 18.75 24.416 20.4289 24.416 22.5C24.416 23.1904 23.8564 23.75 23.166 23.75C22.4757 23.75 21.916 23.1904 21.916 22.5C21.916 19.0482 24.7142 16.25 28.166 16.25Z" fill="#D48305"/>
<path d="M3.16602 13.75C2.47566 13.75 1.91602 13.1904 1.91602 12.5C1.91602 11.8096 2.47566 11.25 3.16602 11.25C5.23708 11.25 6.91602 9.57107 6.91602 7.5C6.91602 6.80964 7.47566 6.25 8.16602 6.25C8.85637 6.25 9.41602 6.80964 9.41602 7.5C9.41602 10.9518 6.6178 13.75 3.16602 13.75Z" fill="#D48305"/>
<path fill-rule="evenodd" clip-rule="evenodd" d="M15.666 17.5C17.0467 17.5 18.166 16.3807 18.166 15C18.166 13.6193 17.0467 12.5 15.666 12.5C14.2853 12.5 13.166 13.6193 13.166 15C13.166 16.3807 14.2853 17.5 15.666 17.5ZM15.666 20C18.4274 20 20.666 17.7614 20.666 15C20.666 12.2386 18.4274 10 15.666 10C12.9046 10 10.666 12.2386 10.666 15C10.666 17.7614 12.9046 20 15.666 20Z" fill="#D48305"/>
</g>
<defs>
<clipPath id="clip0_2476_45408">
<rect width="30" height="30" fill="white" transform="translate(0.666016)"/>
</clipPath>
</defs>
</svg>
