<svg width="31" height="30" viewBox="0 0 31 30" fill="none" xmlns="http://www.w3.org/2000/svg">
<path fill-rule="evenodd" clip-rule="evenodd" d="M5.33184 12.1365L14.3234 24.3977C14.8229 25.0788 15.84 25.0788 16.3394 24.3977L25.331 12.1365C25.6706 11.6734 25.6509 11.0383 25.2832 10.5971L21.802 6.41968C21.6104 6.18969 21.3425 6.03613 21.0472 5.98692L15.5369 5.06853C15.4009 5.04584 15.262 5.04584 15.1259 5.06853L9.61552 5.98692C9.32024 6.03613 9.0524 6.18969 8.86075 6.41968L5.37957 10.5971C5.01187 11.0383 4.99219 11.6734 5.33184 12.1365ZM3.31584 13.6149L12.3074 25.8761C13.8057 27.9193 16.8571 27.9193 18.3554 25.8761L27.347 13.6149C28.3659 12.2254 28.3069 10.3203 27.2037 8.99663L23.7226 4.81922C23.1476 4.12927 22.3441 3.66858 21.4582 3.52093L15.9479 2.60254C15.5397 2.5345 15.1231 2.5345 14.7149 2.60254L9.20454 3.52093C8.31864 3.66858 7.51516 4.12927 6.9402 4.81922L3.45901 8.99663C2.35592 10.3203 2.29686 12.2254 3.31584 13.6149Z" fill="#D48305"/>
<path fill-rule="evenodd" clip-rule="evenodd" d="M21.233 12.5H25.332C26.0224 12.5 26.582 11.9404 26.582 11.25C26.582 10.5597 26.0224 10 25.332 10H22.0123L23.0452 6.55677C23.2435 5.89553 22.8684 5.19868 22.2072 5.0003C21.5459 4.80193 20.849 5.17715 20.6507 5.8384L19.8984 8.34603L16.949 3.92203C16.5885 3.38138 15.9818 3.05664 15.332 3.05664C14.6823 3.05664 14.0755 3.38138 13.715 3.92203L10.7658 8.34588L10.0136 5.8384C9.81521 5.17715 9.11836 4.80193 8.45711 5.0003C7.79587 5.19868 7.42064 5.89553 7.61901 6.55677L8.65198 10H5.33203C4.64168 10 4.08203 10.5597 4.08203 11.25C4.08203 11.9404 4.64168 12.5 5.33203 12.5H9.43108L13.7712 25.5203C13.9952 26.1921 14.6239 26.6453 15.332 26.6453C16.0402 26.6453 16.6689 26.1921 16.8929 25.5203L21.233 12.5ZM17.9964 10L15.332 6.00349L12.6677 10H17.9964ZM12.0663 12.5L15.332 22.2971L18.5978 12.5H12.0663Z" fill="#D48305"/>
</svg>
