<svg width="30" height="30" viewBox="0 0 30 30" fill="none" xmlns="http://www.w3.org/2000/svg">
<path fill-rule="evenodd" clip-rule="evenodd" d="M12.5 7.5C12.5 10.2614 10.2614 12.5 7.5 12.5C4.73858 12.5 2.5 10.2614 2.5 7.5C2.5 4.73858 4.73858 2.5 7.5 2.5C10.2614 2.5 12.5 4.73858 12.5 7.5ZM10 7.5C10 8.88071 8.88071 10 7.5 10C6.11929 10 5 8.88071 5 7.5C5 6.11929 6.11929 5 7.5 5C8.88071 5 10 6.11929 10 7.5Z" fill="#D48305"/>
<path fill-rule="evenodd" clip-rule="evenodd" d="M27.5 22.5C27.5 25.2614 25.2614 27.5 22.5 27.5C19.7386 27.5 17.5 25.2614 17.5 22.5C17.5 19.7386 19.7386 17.5 22.5 17.5C25.2614 17.5 27.5 19.7386 27.5 22.5ZM25 22.5C25 23.8807 23.8807 25 22.5 25C21.1193 25 20 23.8807 20 22.5C20 21.1193 21.1193 20 22.5 20C23.8807 20 25 21.1193 25 22.5Z" fill="#D48305"/>
<path fill-rule="evenodd" clip-rule="evenodd" d="M24.5175 2.76325C25.0624 3.18708 25.1606 3.97243 24.7367 4.51736L7.23675 27.0174C6.81291 27.5623 6.02757 27.6605 5.48263 27.2366C4.9377 26.8128 4.83953 26.0274 5.26337 25.4825L22.7634 2.98251C23.1872 2.43758 23.9725 2.33941 24.5175 2.76325Z" fill="#D48305"/>
</svg>
