<svg width="30" height="30" viewBox="0 0 30 30" fill="none" xmlns="http://www.w3.org/2000/svg">
<path d="M11.2607 1.90125C8.16133 1.90125 5.6357 4.42499 5.6357 7.52625V11.2762C5.6357 12.9787 6.41383 14.4919 7.61758 15.5231C5.54445 16.2085 3.73203 17.5145 2.42575 19.2641C1.11946 21.0137 0.382432 23.1226 0.314453 25.305C0.314453 25.7962 0.760703 26.2425 1.25195 26.2425L20.5869 26.3006C19.616 25.8166 18.7265 25.184 17.9507 24.4256L2.42383 24.3694C3.06508 20.0925 6.60883 16.8075 11.0226 16.875C11.1032 16.8787 11.1782 16.9012 11.2607 16.9012C11.2982 16.9012 11.3301 16.89 11.3657 16.89C12.9023 16.9774 14.3872 17.476 15.6651 18.3337C15.6268 17.6113 15.6081 16.8879 15.6088 16.1644C15.2935 16.0099 14.972 15.8685 14.6451 15.7406C15.3385 15.2206 15.9019 14.5467 16.2907 13.7721C16.6795 12.9974 16.8832 12.143 16.8857 11.2762V7.52625C16.8857 4.42499 14.3601 1.90125 11.2607 1.90125ZM11.2607 3.77624C13.3551 3.77624 15.0107 5.43187 15.0107 7.52625V11.2762C15.017 12.2462 14.6434 13.1801 13.9699 13.8781C13.2964 14.5761 12.3765 14.9829 11.407 15.0112C11.3413 15.0075 11.2795 14.9944 11.212 14.9925C11.1351 14.9906 11.0601 14.9962 10.9813 14.9962C10.0373 14.9364 9.15187 14.5178 8.50657 13.8261C7.86128 13.1345 7.50498 12.2222 7.5107 11.2762V7.52625C7.5107 5.43187 9.16633 3.77624 11.2607 3.77624ZM23.0544 11.3325L22.537 11.7262C20.9282 12.9394 19.0551 14.1394 17.3938 14.2631L16.5257 14.3306V15.1969C16.5257 15.7687 16.5407 16.2731 16.552 16.7831L16.5257 16.8281L16.552 16.8412C16.6101 19.1325 16.8295 20.8762 17.5738 22.3125C18.4907 24.0806 20.1576 25.2 22.7263 26.2387L23.0882 26.3812L23.4482 26.2312C25.9232 25.1644 27.5919 24.21 28.5538 22.4812C29.5138 20.7544 29.6844 18.5362 29.6844 14.9962V14.19L28.8894 14.07C26.9319 13.77 25.4807 12.8869 23.6057 11.685L23.0563 11.3344L23.0544 11.3325ZM23.2026 13.5319C24.6145 14.4206 26.0713 15.1162 27.7363 15.5381C27.7063 17.9362 27.5713 19.665 27.202 20.8256L18.5301 15.8194C20.2926 15.4144 21.8713 14.5162 23.2026 13.5319ZM18.5995 18.0244L26.2157 22.4231C25.5126 23.0831 24.4757 23.6381 23.0188 24.2906C20.9638 23.4075 19.8351 22.6069 19.2369 21.4519C18.8451 20.6981 18.6932 19.4606 18.5995 18.0244Z" fill="#D48305"/>
</svg>
