<svg width="31" height="30" viewBox="0 0 31 30" fill="none" xmlns="http://www.w3.org/2000/svg">
<path d="M26.3299 2.23238C26.2628 2.12309 26.1688 2.03285 26.0568 1.97028C25.9449 1.90771 25.8188 1.8749 25.6905 1.875H17.4405C17.295 1.87503 17.1527 1.91737 17.0308 1.99687C16.909 2.07637 16.8129 2.1896 16.7543 2.32275L10.272 17.055C10.2217 17.1692 10.2007 17.294 10.2109 17.4184C10.2211 17.5427 10.2621 17.6625 10.3302 17.767C10.3983 17.8714 10.4915 17.9573 10.6011 18.0167C10.7108 18.0761 10.8335 18.1072 10.9583 18.1073H16.3808L13.1978 27.1253C13.1395 27.289 13.1399 27.4678 13.199 27.6313C13.258 27.7947 13.372 27.9326 13.5215 28.0212C13.6709 28.1099 13.8465 28.1439 14.0183 28.1174C14.19 28.0909 14.3472 28.0056 14.463 27.876L28.6001 12.126C28.6969 12.0182 28.7604 11.8847 28.7829 11.7416C28.8054 11.5985 28.786 11.452 28.727 11.3197C28.6681 11.1873 28.572 11.075 28.4506 10.996C28.3291 10.9171 28.1874 10.8751 28.0425 10.875H22.3523L26.3599 2.96363C26.4178 2.84932 26.4454 2.7221 26.4401 2.59409C26.4349 2.46608 26.3969 2.34155 26.3299 2.23238ZM20.4626 11.2864C20.4048 11.4007 20.3772 11.5279 20.3825 11.656C20.3878 11.784 20.4258 11.9085 20.4929 12.0177C20.5599 12.1268 20.6539 12.217 20.7657 12.2796C20.8775 12.3421 21.0035 12.375 21.1316 12.375H26.3614L15.8689 24.0645L18.1478 17.607C18.1877 17.4939 18.1999 17.3729 18.1834 17.2541C18.1669 17.1353 18.1222 17.0222 18.053 16.9243C17.9837 16.8263 17.892 16.7464 17.7855 16.6913C17.679 16.6361 17.5608 16.6073 17.4409 16.6073H12.108L17.9303 3.375H24.4703L20.4626 11.2864ZM4.61402 22.5C4.66652 22.5 4.72052 22.4944 4.77414 22.4828L9.07539 21.5471C9.17309 21.5277 9.26593 21.489 9.3485 21.4333C9.43108 21.3776 9.50172 21.3059 9.55632 21.2226C9.61092 21.1393 9.64837 21.046 9.6665 20.948C9.68462 20.8501 9.68305 20.7495 9.66188 20.6521C9.64071 20.5548 9.60036 20.4627 9.54319 20.3811C9.48602 20.2995 9.41318 20.2302 9.3289 20.1771C9.24463 20.1239 9.15063 20.0881 9.05237 20.0718C8.95412 20.0554 8.85358 20.0587 8.75664 20.0816L4.45539 21.0173C4.27477 21.0567 4.11507 21.1614 4.00695 21.3114C3.89883 21.4613 3.8499 21.646 3.86957 21.8298C3.88924 22.0136 3.9761 22.1837 4.1135 22.3074C4.2509 22.4311 4.42914 22.4997 4.61402 22.5ZM2.54102 16.875C2.54102 17.0739 2.62003 17.2647 2.76069 17.4053C2.90134 17.546 3.0921 17.625 3.29102 17.625H7.59301C7.79193 17.625 7.98269 17.546 8.12334 17.4053C8.264 17.2647 8.34301 17.0739 8.34301 16.875C8.34301 16.6761 8.264 16.4853 8.12334 16.3447C7.98269 16.204 7.79193 16.125 7.59301 16.125H3.29139C3.09248 16.125 2.90171 16.204 2.76106 16.3447C2.62041 16.4853 2.54102 16.6761 2.54102 16.875ZM9.07576 12.2029L4.77452 11.2673C4.58141 11.2281 4.38065 11.2665 4.21564 11.3742C4.05063 11.4819 3.93463 11.6502 3.89271 11.8427C3.85078 12.0353 3.88631 12.2365 3.9916 12.4031C4.09689 12.5696 4.26349 12.6881 4.45539 12.7328L8.75664 13.6684C8.94947 13.7067 9.14965 13.6679 9.31409 13.5601C9.47854 13.4523 9.59409 13.2843 9.63588 13.0922C9.67766 12.9001 9.64234 12.6992 9.53751 12.5329C9.43268 12.3666 9.26711 12.2481 9.07576 12.2029Z" fill="#D48305"/>
</svg>
