<svg width="31" height="30" viewBox="0 0 31 30" fill="none" xmlns="http://www.w3.org/2000/svg">
<g clip-path="url(#clip0_2476_45419)">
<path d="M29.5823 7.10293L27.4205 6.44116C27.3764 6.35293 27.3323 6.26469 27.2881 6.17646L28.347 4.14704C28.4352 3.97057 28.3911 3.74999 28.2587 3.61763L26.7146 2.07351C26.5823 1.94116 26.3617 1.89704 26.1852 1.98528L24.1558 3.0441C24.0676 2.99999 23.9793 2.95587 23.847 2.91175L23.1852 0.749986C23.1852 0.573515 23.0087 0.441162 22.8323 0.441162H20.6264C20.4499 0.441162 20.2734 0.573515 20.1852 0.749986L19.5234 2.91175C19.4352 2.95587 19.347 2.99999 19.2146 3.0441L17.1852 1.98528C17.0087 1.89704 16.7881 1.94116 16.6558 2.07351L15.1117 3.61763C14.9793 3.74999 14.9352 3.97057 15.0234 4.14704L16.0823 6.17646C16.0381 6.26469 15.994 6.35293 15.9499 6.48528L14.5381 6.92646C14.097 6.83822 13.0823 6.66175 12.6411 6.70587C6.4205 6.26469 0.773438 11.4265 0.773438 18.0882C0.773438 24.4412 5.9352 29.5588 12.244 29.5588C18.5528 29.5588 23.7146 24.4412 23.7146 18.0882C23.7146 17.2941 23.6264 16.5 23.4499 15.75L23.8911 14.3382C23.9793 14.2941 24.0676 14.25 24.1558 14.2059L26.1852 15.2647C26.3617 15.3529 26.5823 15.3088 26.7146 15.1765L28.2587 13.6323C28.3911 13.5 28.4352 13.2794 28.347 13.1029L27.2881 11.0735C27.3323 10.9853 27.3764 10.897 27.4205 10.8088L29.5823 10.147C29.7587 10.1029 29.8911 9.92646 29.8911 9.70587V7.49999C29.8911 7.32352 29.7587 7.14704 29.5823 7.10293ZM21.244 23.6912C20.3176 23.4265 19.347 23.2059 18.2881 23.0294C18.5087 21.6176 18.6411 20.1176 18.6411 18.5735H22.8323C22.744 20.3823 22.2146 22.147 21.244 23.6912ZM17.1852 27.4412C17.5823 26.3382 17.8911 25.147 18.1558 23.8676C19.0823 24.0441 19.9646 24.2206 20.7587 24.4412C19.744 25.7206 18.5529 26.7353 17.1852 27.4412ZM3.77344 24.4412C4.56756 24.2206 5.44991 24.0441 6.37638 23.8676C6.59697 25.147 6.94991 26.3823 7.34697 27.4412C5.9352 26.7353 4.74403 25.7206 3.77344 24.4412ZM7.30285 8.73528C6.90579 9.83822 6.59697 11.0294 6.37638 12.3088C5.44991 12.1323 4.56756 11.9559 3.77344 11.7353C4.69991 10.5 5.89108 9.48528 7.30285 8.73528ZM16.0381 27.9706C14.8028 28.4559 13.744 28.5882 12.6852 28.6323V23.3823C14.2734 23.3823 15.7734 23.5147 17.2293 23.7353C16.9646 25.2794 16.5234 26.7353 16.0381 27.9706ZM7.25873 23.7353C8.71461 23.5147 10.2146 23.4265 11.8028 23.3823V28.6323C10.744 28.5882 9.6852 28.4118 8.44991 27.9706C7.96461 26.7794 7.52344 25.3235 7.25873 23.7353ZM17.4058 22.8529C15.9058 22.6323 14.3176 22.5441 12.6852 22.5V18.5294H17.7587C17.7146 20.0294 17.5823 21.4853 17.4058 22.8529ZM11.8028 22.5C10.1705 22.5 8.58226 22.6323 7.08226 22.8529C6.86167 21.4853 6.72932 20.0294 6.72932 18.5294H11.8028V22.5ZM6.72932 17.647C6.72932 16.147 6.86167 14.6912 7.08226 13.3235C8.58226 13.5441 10.1705 13.6323 11.8028 13.6765V17.647H6.72932ZM7.25873 12.4412C7.56755 10.8529 7.96461 9.39704 8.49403 8.20587C9.64108 7.76469 10.744 7.58822 11.847 7.5441V12.7941C10.2146 12.75 8.71461 12.6618 7.25873 12.4412ZM3.24403 12.4853C4.1705 12.75 5.14108 12.9706 6.19991 13.147C5.97932 14.5588 5.84697 16.0588 5.84697 17.6029H1.65579C1.74403 15.7941 2.27344 14.0294 3.24403 12.4853ZM5.84697 18.5294C5.84697 20.0735 5.97932 21.5735 6.19991 22.9853C5.14108 23.1617 4.12638 23.3823 3.24403 23.647C2.27344 22.147 1.74403 20.3823 1.65579 18.5294H5.84697ZM22.744 16.7647C22.7881 17.0735 22.7881 17.3382 22.8323 17.647H18.6411C18.6411 16.5882 18.5528 15.5735 18.4646 14.6029L19.2587 14.1617C19.347 14.2059 19.4352 14.25 19.5676 14.2941L20.2293 16.4559C20.2734 16.6323 20.4499 16.7647 20.6705 16.7647H22.744ZM17.5823 15.0441C17.6705 15.8823 17.7146 16.7647 17.7146 17.647H12.6852V13.6765C13.5234 13.6765 14.3176 13.6323 15.1558 13.5882L15.1999 13.6323L16.744 15.1765C16.8764 15.3088 17.097 15.3529 17.2734 15.2647L17.5823 15.0441ZM15.3323 12.6618C14.4499 12.75 13.5676 12.7941 12.6852 12.7941V7.49999C12.9499 7.49999 12.9499 7.49999 13.5676 7.58822V9.70587C13.5676 9.88234 13.6999 10.0588 13.8764 10.147L16.0381 10.8088C16.0823 10.897 16.1264 10.9853 16.1705 11.1176L15.3323 12.6618ZM29.0087 9.35293L26.9352 10.0147C26.8028 10.0588 26.6705 10.147 26.6264 10.2794C26.5823 10.4559 26.494 10.6765 26.3617 10.897C26.3176 11.0294 26.3176 11.1618 26.3617 11.2941L27.3764 13.2353L26.2734 14.2941L24.3323 13.2794C24.1999 13.2353 24.0676 13.1912 23.9352 13.2794C23.7587 13.3676 23.5381 13.4559 23.3617 13.5441C23.2293 13.5882 23.1411 13.6765 23.097 13.8529L22.4793 15.8823H20.9352L20.2734 13.8088C20.2293 13.6765 20.1411 13.5441 20.0087 13.5C19.8323 13.4559 19.6117 13.3676 19.4352 13.2353C19.3028 13.1912 19.1705 13.1912 19.0381 13.2353L17.7587 13.897L17.1411 14.25L16.0381 13.2353L17.0529 11.2941C17.097 11.1618 17.1411 11.0294 17.0529 10.897C16.9646 10.6765 16.8764 10.5 16.7881 10.2794C16.744 10.147 16.6558 10.0588 16.4793 10.0147L14.4499 9.35293V7.80881L16.5234 7.14704C16.6558 7.10293 16.7881 7.01469 16.8323 6.88234C16.8764 6.70587 16.9646 6.48528 17.097 6.26469C17.1411 6.13234 17.1411 5.99999 17.097 5.86763L16.0823 3.92646L17.1411 2.86763L19.0823 3.88234C19.1705 3.97057 19.3028 3.97057 19.4352 3.92646C19.6558 3.83822 19.8323 3.74999 20.0528 3.66175C20.1852 3.61763 20.2734 3.5294 20.3176 3.39704L20.9793 1.32352H22.5234L23.1852 3.39704C23.1852 3.5294 23.2734 3.61763 23.4058 3.66175C23.6264 3.70587 23.8028 3.7941 23.9793 3.92646C24.1558 3.97057 24.2881 3.97057 24.4205 3.92646L26.3176 2.91175L27.4205 3.97057L26.4058 5.91175C26.3617 6.0441 26.3176 6.17646 26.4058 6.30881C26.494 6.5294 26.5823 6.70587 26.6705 6.92646C26.7146 7.05881 26.8028 7.14704 26.9793 7.19116L29.0528 7.85293V9.35293H29.0087Z" fill="#D48305" stroke="#D48305"/>
<path d="M21.7277 4.80884C19.6101 4.80884 17.9336 6.52943 17.9336 8.60296C17.9336 10.6765 19.6542 12.3971 21.7277 12.3971C23.8012 12.3971 25.5218 10.6765 25.5218 8.60296C25.5218 6.52943 23.8454 4.80884 21.7277 4.80884ZM21.7277 11.5147C20.0954 11.5147 18.8159 10.1912 18.8159 8.60296C18.8159 7.01472 20.1395 5.69119 21.7277 5.69119C23.3159 5.69119 24.6395 7.01472 24.6395 8.60296C24.6395 10.1912 23.3601 11.5147 21.7277 11.5147Z" fill="#D48305" stroke="#D48305"/>
</g>
<defs>
<clipPath id="clip0_2476_45419">
<rect width="30" height="30" fill="white" transform="translate(0.332031)"/>
</clipPath>
</defs>
</svg>
