<svg width="12" height="12" viewBox="0 0 12 12" fill="none" xmlns="http://www.w3.org/2000/svg">
<path d="M6.9998 3.91982V1.43982C6.9998 1.26416 7.05932 1.1168 7.17836 0.997764C7.29699 0.879138 7.44414 0.819824 7.6198 0.819824H11.3398C11.5155 0.819824 11.6626 0.879138 11.7812 0.997764C11.9003 1.1168 11.9598 1.26416 11.9598 1.43982V3.91982C11.9598 4.09549 11.9003 4.24264 11.7812 4.36126C11.6626 4.4803 11.5155 4.53982 11.3398 4.53982H7.6198C7.44414 4.53982 7.29699 4.4803 7.17836 4.36126C7.05932 4.24264 6.9998 4.09549 6.9998 3.91982ZM0.799805 6.39982V1.43982C0.799805 1.26416 0.859325 1.1168 0.978365 0.997764C1.09699 0.879138 1.24414 0.819824 1.4198 0.819824H5.1398C5.31547 0.819824 5.46282 0.879138 5.58186 0.997764C5.70049 1.1168 5.7598 1.26416 5.7598 1.43982V6.39982C5.7598 6.57549 5.70049 6.72264 5.58186 6.84126C5.46282 6.9603 5.31547 7.01982 5.1398 7.01982H1.4198C1.24414 7.01982 1.09699 6.9603 0.978365 6.84126C0.859325 6.72264 0.799805 6.57549 0.799805 6.39982ZM6.9998 11.3598V6.39982C6.9998 6.22416 7.05932 6.0768 7.17836 5.95776C7.29699 5.83914 7.44414 5.77982 7.6198 5.77982H11.3398C11.5155 5.77982 11.6626 5.83914 11.7812 5.95776C11.9003 6.0768 11.9598 6.22416 11.9598 6.39982V11.3598C11.9598 11.5355 11.9003 11.6826 11.7812 11.8013C11.6626 11.9203 11.5155 11.9798 11.3398 11.9798H7.6198C7.44414 11.9798 7.29699 11.9203 7.17836 11.8013C7.05932 11.6826 6.9998 11.5355 6.9998 11.3598ZM0.799805 11.3598V8.87982C0.799805 8.70416 0.859325 8.5568 0.978365 8.43776C1.09699 8.31914 1.24414 8.25982 1.4198 8.25982H5.1398C5.31547 8.25982 5.46282 8.31914 5.58186 8.43776C5.70049 8.5568 5.7598 8.70416 5.7598 8.87982V11.3598C5.7598 11.5355 5.70049 11.6826 5.58186 11.8013C5.46282 11.9203 5.31547 11.9798 5.1398 11.9798H1.4198C1.24414 11.9798 1.09699 11.9203 0.978365 11.8013C0.859325 11.6826 0.799805 11.5355 0.799805 11.3598Z" fill="white"/>
</svg>
