<svg width="13" height="12" viewBox="0 0 13 12" fill="none" xmlns="http://www.w3.org/2000/svg">
<path d="M1.9998 2.3999H0.799805V10.7999C0.799805 11.4599 1.3398 11.9999 1.9998 11.9999H10.3998V10.7999H1.9998V2.3999Z" fill="white"/>
<path d="M11.6002 0H4.4002C3.7402 0 3.2002 0.54 3.2002 1.2V8.4C3.2002 9.06 3.7402 9.6 4.4002 9.6H11.6002C12.2602 9.6 12.8002 9.06 12.8002 8.4V1.2C12.8002 0.54 12.2602 0 11.6002 0ZM8.0062 7.8C7.6522 7.8 7.3762 7.518 7.3762 7.17C7.3762 6.816 7.6582 6.546 8.0062 6.546C8.3602 6.546 8.6302 6.816 8.6302 7.17C8.6242 7.518 8.3602 7.8 8.0062 7.8ZM9.5062 4.098C9.1282 4.656 8.7682 4.824 8.5702 5.184C8.4922 5.328 8.4622 5.424 8.4622 5.892H7.5502C7.5502 5.646 7.5142 5.244 7.7062 4.902C7.9522 4.464 8.4142 4.206 8.6842 3.822C8.9722 3.414 8.8102 2.658 8.0002 2.658C7.4722 2.658 7.2082 3.06 7.1002 3.396L6.2782 3.054C6.5062 2.376 7.1122 1.8 7.9942 1.8C8.7322 1.8 9.2422 2.136 9.5002 2.556C9.7222 2.922 9.8482 3.594 9.5062 4.098Z" fill="white"/>
</svg>
