<svg width="12" height="14" viewBox="0 0 12 14" fill="none" xmlns="http://www.w3.org/2000/svg">
<path d="M7.5198 11.3598C7.78647 11.3598 8.01314 11.2665 8.19981 11.0798C8.38647 10.8931 8.4798 10.6665 8.4798 10.3998C8.4798 10.1331 8.38647 9.90647 8.19981 9.7198C8.01314 9.53314 7.78647 9.43981 7.5198 9.43981C7.25314 9.43981 7.02647 9.53314 6.83981 9.7198C6.65314 9.90647 6.5598 10.1331 6.5598 10.3998C6.5598 10.6665 6.65314 10.8931 6.83981 11.0798C7.02647 11.2665 7.25314 11.3598 7.5198 11.3598ZM3.8398 10.8798C3.95714 10.9971 4.10647 11.0558 4.2878 11.0558C4.46914 11.0558 4.61847 10.9971 4.7358 10.8798L7.9998 7.61581C8.11714 7.49847 8.17581 7.34914 8.17581 7.16781C8.17581 6.98647 8.11714 6.83714 7.9998 6.7198C7.88247 6.60247 7.73314 6.54381 7.55181 6.54381C7.37047 6.54381 7.22114 6.60247 7.10381 6.7198L3.8398 9.9838C3.72247 10.1011 3.6638 10.2505 3.6638 10.4318C3.6638 10.6131 3.72247 10.7625 3.8398 10.8798ZM4.3198 8.1598C4.58647 8.1598 4.81314 8.06647 4.9998 7.87981C5.18647 7.69314 5.2798 7.46647 5.2798 7.1998C5.2798 6.93314 5.18647 6.70647 4.9998 6.5198C4.81314 6.33314 4.58647 6.2398 4.3198 6.2398C4.05314 6.2398 3.82647 6.33314 3.6398 6.5198C3.45314 6.70647 3.3598 6.93314 3.3598 7.1998C3.3598 7.46647 3.45314 7.69314 3.6398 7.87981C3.82647 8.06647 4.05314 8.1598 4.3198 8.1598ZM2.0798 13.5998C1.7278 13.5998 1.42647 13.4745 1.1758 13.2238C0.925138 12.9731 0.799805 12.6718 0.799805 12.3198V2.0798C0.799805 1.7278 0.925138 1.42647 1.1758 1.1758C1.42647 0.925138 1.7278 0.799805 2.0798 0.799805H7.1998L11.0398 4.6398V12.3198C11.0398 12.6718 10.9145 12.9731 10.6638 13.2238C10.4131 13.4745 10.1118 13.5998 9.7598 13.5998H2.0798ZM9.7598 5.2798L6.5598 2.0798V3.9998C6.5598 4.3518 6.68514 4.65314 6.9358 4.9038C7.18647 5.15447 7.4878 5.2798 7.83981 5.2798H9.7598Z" fill="white"/>
</svg>
