<svg width="36" height="19" viewBox="0 0 36 19" fill="none" xmlns="http://www.w3.org/2000/svg">
<path d="M15.5421 3.336C13.8141 1.632 11.5581 0.792 9.32606 0.792C3.59006 0.792 0.494063 4.92 0.494063 9.768C0.494063 14.232 3.15806 18.336 9.32606 18.336C12.1581 18.336 14.2461 17.256 15.9261 15.408V8.52H8.75006V10.92H13.4301V14.328C12.0861 15.456 10.7661 15.816 9.32606 15.816C4.95806 15.816 3.13406 12.84 3.13406 9.768C3.11006 6.216 5.39006 3.264 9.32606 3.264C10.8861 3.264 12.6621 3.888 13.8621 5.064L15.5421 3.336ZM26.97 0.887999C21.906 0.887999 18.33 4.584 18.33 9.696C18.33 14.112 21.09 18.36 26.922 18.36C32.754 18.36 35.514 14.208 35.514 9.672C35.514 5.136 32.706 0.912 26.97 0.887999ZM20.994 9.72C20.994 6.048 23.082 3.336 26.97 3.336C31.074 3.408 32.85 6.624 32.85 9.72C32.85 12.936 31.098 15.888 26.922 15.888C22.77 15.888 21.042 12.696 20.994 9.72Z" fill="white"/>
</svg>
