<svg width="50" height="50" viewBox="0 0 50 50" fill="none" xmlns="http://www.w3.org/2000/svg">
<rect width="50" height="50" rx="25" fill="#F8F8F8"/>
<path fill-rule="evenodd" clip-rule="evenodd" d="M31.6667 20.0002H18.3333C17.4129 20.0002 16.6667 20.7464 16.6667 21.6668V28.3335C16.6667 29.254 17.4129 30.0002 18.3333 30.0002H31.6667C32.5871 30.0002 33.3333 29.254 33.3333 28.3335V21.6668C33.3333 20.7464 32.5871 20.0002 31.6667 20.0002ZM18.3333 18.3335C16.4924 18.3335 15 19.8259 15 21.6668V28.3335C15 30.1744 16.4924 31.6668 18.3333 31.6668H31.6667C33.5076 31.6668 35 30.1744 35 28.3335V21.6668C35 19.8259 33.5076 18.3335 31.6667 18.3335H18.3333Z" fill="#4D4D4D"/>
<path d="M34.1666 23.3332C34.1666 23.7934 33.7935 24.1665 33.3333 24.1665C31.0321 24.1665 29.1666 22.301 29.1666 19.9998C29.1666 19.5396 29.5397 19.1665 29.9999 19.1665C30.4602 19.1665 30.8333 19.5396 30.8333 19.9998C30.8333 21.3805 31.9525 22.4998 33.3333 22.4998C33.7935 22.4998 34.1666 22.8729 34.1666 23.3332Z" fill="#4D4D4D"/>
<path d="M16.6666 25.8332C16.2063 25.8332 15.8333 26.2063 15.8333 26.6665C15.8333 27.1267 16.2063 27.4998 16.6666 27.4998C18.0473 27.4998 19.1666 28.6191 19.1666 29.9998C19.1666 30.4601 19.5397 30.8332 19.9999 30.8332C20.4602 30.8332 20.8333 30.4601 20.8333 29.9998C20.8333 27.6987 18.9678 25.8332 16.6666 25.8332Z" fill="#4D4D4D"/>
<path d="M33.3333 25.8332C33.7935 25.8332 34.1666 26.2063 34.1666 26.6665C34.1666 27.1267 33.7935 27.4998 33.3333 27.4998C31.9525 27.4998 30.8333 28.6191 30.8333 29.9998C30.8333 30.4601 30.4602 30.8332 29.9999 30.8332C29.5397 30.8332 29.1666 30.4601 29.1666 29.9998C29.1666 27.6987 31.0321 25.8332 33.3333 25.8332Z" fill="#4D4D4D"/>
<path d="M16.6666 24.1665C16.2063 24.1665 15.8333 23.7934 15.8333 23.3332C15.8333 22.8729 16.2063 22.4998 16.6666 22.4998C18.0473 22.4998 19.1666 21.3805 19.1666 19.9998C19.1666 19.5396 19.5397 19.1665 19.9999 19.1665C20.4602 19.1665 20.8333 19.5396 20.8333 19.9998C20.8333 22.301 18.9678 24.1665 16.6666 24.1665Z" fill="#4D4D4D"/>
<path fill-rule="evenodd" clip-rule="evenodd" d="M25.0001 26.6665C25.9206 26.6665 26.6667 25.9203 26.6667 24.9998C26.6667 24.0794 25.9206 23.3332 25.0001 23.3332C24.0796 23.3332 23.3334 24.0794 23.3334 24.9998C23.3334 25.9203 24.0796 26.6665 25.0001 26.6665ZM25.0001 28.3332C26.841 28.3332 28.3334 26.8408 28.3334 24.9998C28.3334 23.1589 26.841 21.6665 25.0001 21.6665C23.1591 21.6665 21.6667 23.1589 21.6667 24.9998C21.6667 26.8408 23.1591 28.3332 25.0001 28.3332Z" fill="#4D4D4D"/>
</svg>
