<svg width="20" height="20" viewBox="0 0 20 20" fill="none" xmlns="http://www.w3.org/2000/svg">
<path fill-rule="evenodd" clip-rule="evenodd" d="M16.6667 5.00004H3.33333C2.41286 5.00004 1.66667 5.74623 1.66667 6.66671V13.3334C1.66667 14.2538 2.41286 15 3.33333 15H16.6667C17.5871 15 18.3333 14.2538 18.3333 13.3334V6.66671C18.3333 5.74623 17.5871 5.00004 16.6667 5.00004ZM3.33333 3.33337C1.49238 3.33337 0 4.82576 0 6.66671V13.3334C0 15.1743 1.49238 16.6667 3.33333 16.6667H16.6667C18.5076 16.6667 20 15.1743 20 13.3334V6.66671C20 4.82576 18.5076 3.33337 16.6667 3.33337H3.33333Z" fill="white"/>
<path d="M19.1673 8.33329C19.1673 8.79353 18.7942 9.16663 18.334 9.16663C16.0328 9.16663 14.1673 7.30115 14.1673 4.99996C14.1673 4.53972 14.5404 4.16663 15.0006 4.16663C15.4609 4.16663 15.834 4.53972 15.834 4.99996C15.834 6.38067 16.9533 7.49996 18.334 7.49996C18.7942 7.49996 19.1673 7.87306 19.1673 8.33329Z" fill="white"/>
<path d="M1.66732 10.8333C1.20708 10.8333 0.833984 11.2064 0.833984 11.6666C0.833984 12.1269 1.20708 12.5 1.66732 12.5C3.04803 12.5 4.16732 13.6192 4.16732 15C4.16732 15.4602 4.54041 15.8333 5.00065 15.8333C5.46089 15.8333 5.83398 15.4602 5.83398 15C5.83398 12.6988 3.9685 10.8333 1.66732 10.8333Z" fill="white"/>
<path d="M18.334 10.8333C18.7942 10.8333 19.1673 11.2064 19.1673 11.6666C19.1673 12.1269 18.7942 12.5 18.334 12.5C16.9533 12.5 15.834 13.6192 15.834 15C15.834 15.4602 15.4609 15.8333 15.0006 15.8333C14.5404 15.8333 14.1673 15.4602 14.1673 15C14.1673 12.6988 16.0328 10.8333 18.334 10.8333Z" fill="white"/>
<path d="M1.66732 9.16663C1.20708 9.16663 0.833984 8.79353 0.833984 8.33329C0.833984 7.87306 1.20708 7.49996 1.66732 7.49996C3.04803 7.49996 4.16732 6.38067 4.16732 4.99996C4.16732 4.53972 4.54041 4.16663 5.00065 4.16663C5.46089 4.16663 5.83398 4.53972 5.83398 4.99996C5.83398 7.30115 3.9685 9.16663 1.66732 9.16663Z" fill="white"/>
<path fill-rule="evenodd" clip-rule="evenodd" d="M9.99935 11.6666C10.9198 11.6666 11.666 10.9204 11.666 9.99996C11.666 9.07948 10.9198 8.33329 9.99935 8.33329C9.07887 8.33329 8.33268 9.07948 8.33268 9.99996C8.33268 10.9204 9.07887 11.6666 9.99935 11.6666ZM9.99935 13.3333C11.8403 13.3333 13.3327 11.8409 13.3327 9.99996C13.3327 8.15901 11.8403 6.66663 9.99935 6.66663C8.1584 6.66663 6.66602 8.15901 6.66602 9.99996C6.66602 11.8409 8.1584 13.3333 9.99935 13.3333Z" fill="white"/>
</svg>
