<svg width="20" height="20" viewBox="0 0 20 20" fill="none" xmlns="http://www.w3.org/2000/svg">
<path fill-rule="evenodd" clip-rule="evenodd" d="M8.33268 4.99996C8.33268 6.84091 6.8403 8.33329 4.99935 8.33329C3.1584 8.33329 1.66602 6.84091 1.66602 4.99996C1.66602 3.15901 3.1584 1.66663 4.99935 1.66663C6.8403 1.66663 8.33268 3.15901 8.33268 4.99996ZM6.66602 4.99996C6.66602 5.92043 5.91982 6.66663 4.99935 6.66663C4.07887 6.66663 3.33268 5.92043 3.33268 4.99996C3.33268 4.07948 4.07887 3.33329 4.99935 3.33329C5.91982 3.33329 6.66602 4.07948 6.66602 4.99996Z" fill="white"/>
<path fill-rule="evenodd" clip-rule="evenodd" d="M18.3327 15C18.3327 16.8409 16.8403 18.3333 14.9993 18.3333C13.1584 18.3333 11.666 16.8409 11.666 15C11.666 13.159 13.1584 11.6666 14.9993 11.6666C16.8403 11.6666 18.3327 13.159 18.3327 15ZM16.666 15C16.666 15.9204 15.9198 16.6666 14.9993 16.6666C14.0789 16.6666 13.3327 15.9204 13.3327 15C13.3327 14.0795 14.0789 13.3333 14.9993 13.3333C15.9198 13.3333 16.666 14.0795 16.666 15Z" fill="white"/>
<path fill-rule="evenodd" clip-rule="evenodd" d="M16.3456 1.8422C16.7089 2.12476 16.7744 2.64833 16.4918 3.01161L4.82515 18.0116C4.54259 18.3749 4.01903 18.4403 3.65574 18.1578C3.29245 17.8752 3.227 17.3517 3.50956 16.9884L15.1762 1.98838C15.4588 1.62509 15.9824 1.55965 16.3456 1.8422Z" fill="white"/>
</svg>
