<svg width="30" height="31" viewBox="0 0 30 31" fill="none" xmlns="http://www.w3.org/2000/svg">
<path d="M25.6639 2.85982C25.5968 2.75053 25.5027 2.66029 25.3908 2.59772C25.2789 2.53515 25.1527 2.50234 25.0245 2.50244H16.7745C16.629 2.50247 16.4867 2.54482 16.3648 2.62432C16.243 2.70382 16.1469 2.81704 16.0882 2.95019L9.606 17.6824C9.55573 17.7966 9.53473 17.9215 9.54489 18.0458C9.55505 18.1701 9.59606 18.2899 9.66419 18.3944C9.73233 18.4989 9.82544 18.5847 9.9351 18.6441C10.0448 18.7035 10.1675 18.7347 10.2922 18.7347H15.7147L12.5317 27.7527C12.4735 27.9164 12.4739 28.0953 12.533 28.2587C12.592 28.4222 12.706 28.56 12.8555 28.6487C13.0049 28.7373 13.1805 28.7713 13.3523 28.7449C13.524 28.7184 13.6812 28.633 13.797 28.5034L27.9341 12.7534C28.0309 12.6456 28.0944 12.5121 28.1169 12.369C28.1394 12.226 28.12 12.0794 28.061 11.9471C28.0021 11.8148 27.906 11.7024 27.7846 11.6235C27.6631 11.5446 27.5213 11.5025 27.3765 11.5024H21.6862L25.6939 3.59107C25.7517 3.47677 25.7794 3.34954 25.7741 3.22153C25.7689 3.09352 25.7309 2.96899 25.6639 2.85982ZM19.7966 11.9138C19.7388 12.0281 19.7112 12.1554 19.7165 12.2834C19.7218 12.4114 19.7598 12.536 19.8268 12.6451C19.8939 12.7543 19.9879 12.8444 20.0997 12.907C20.2115 12.9695 20.3375 13.0024 20.4656 13.0024H25.6954L15.2029 24.6919L17.4817 18.2344C17.5217 18.1214 17.5339 18.0003 17.5174 17.8815C17.5009 17.7627 17.4562 17.6496 17.3869 17.5517C17.3177 17.4538 17.226 17.3739 17.1195 17.3187C17.013 17.2636 16.8948 17.2347 16.7749 17.2347H11.442L17.2642 4.00244H23.8042L19.7966 11.9138ZM3.948 23.1274C4.0005 23.1274 4.0545 23.1218 4.10812 23.1102L8.40937 22.1746C8.50707 22.1551 8.59991 22.1164 8.68249 22.0607C8.76506 22.005 8.83571 21.9334 8.89031 21.8501C8.9449 21.7668 8.98236 21.6734 9.00048 21.5755C9.01861 21.4775 9.01704 21.3769 8.99587 21.2796C8.9747 21.1823 8.93435 21.0901 8.87718 21.0085C8.82001 20.927 8.74716 20.8576 8.66289 20.8045C8.57862 20.7514 8.48461 20.7156 8.38636 20.6992C8.2881 20.6828 8.18757 20.6862 8.09062 20.7091L3.78937 21.6447C3.60875 21.6841 3.44905 21.7889 3.34093 21.9388C3.23281 22.0888 3.18389 22.2734 3.20355 22.4572C3.22322 22.6411 3.31009 22.8111 3.44749 22.9348C3.58488 23.0585 3.76312 23.1271 3.948 23.1274ZM1.875 17.5024C1.875 17.7014 1.95402 17.8921 2.09467 18.0328C2.23532 18.1734 2.42609 18.2524 2.625 18.2524H6.927C7.12591 18.2524 7.31668 18.1734 7.45733 18.0328C7.59798 17.8921 7.677 17.7014 7.677 17.5024C7.677 17.3035 7.59798 17.1128 7.45733 16.9721C7.31668 16.8315 7.12591 16.7524 6.927 16.7524H2.62537C2.42646 16.7524 2.2357 16.8315 2.09504 16.9721C1.95439 17.1128 1.875 17.3035 1.875 17.5024ZM8.40975 12.8303L4.1085 11.8947C3.91539 11.8556 3.71463 11.894 3.54963 12.0017C3.38462 12.1093 3.26861 12.2776 3.22669 12.4702C3.18477 12.6627 3.22029 12.864 3.32558 13.0305C3.43087 13.1971 3.59747 13.3155 3.78937 13.3602L8.09062 14.2958C8.28345 14.3342 8.48363 14.2953 8.64808 14.1875C8.81252 14.0798 8.92808 13.9118 8.96986 13.7196C9.01165 13.5275 8.97632 13.3267 8.8715 13.1604C8.76667 12.994 8.60109 12.8755 8.40975 12.8303Z" fill="#EED813"/>
</svg>
