<svg width="30" height="31" viewBox="0 0 30 31" fill="none" xmlns="http://www.w3.org/2000/svg">
<path d="M11.2627 2.52869C8.16328 2.52869 5.63766 5.05244 5.63766 8.15369V11.9037C5.63766 13.6062 6.41578 15.1193 7.61953 16.1506C5.5464 16.836 3.73398 18.1419 2.4277 19.8915C1.12142 21.6412 0.384385 23.75 0.316406 25.9324C0.316406 26.4237 0.762656 26.8699 1.25391 26.8699L20.5889 26.9281C19.6179 26.444 18.7285 25.8114 17.9527 25.0531L2.42578 24.9968C3.06703 20.7199 6.61078 17.4349 11.0245 17.5024C11.1052 17.5062 11.1802 17.5287 11.2627 17.5287C11.3002 17.5287 11.332 17.5174 11.3677 17.5174C12.9042 17.6048 14.3891 18.1034 15.667 18.9612C15.6288 18.2387 15.61 17.5153 15.6108 16.7918C15.2955 16.6374 14.974 16.496 14.647 16.3681C15.3405 15.8481 15.9038 15.1742 16.2926 14.3995C16.6814 13.6248 16.8851 12.7705 16.8877 11.9037V8.15369C16.8877 5.05244 14.362 2.52869 11.2627 2.52869ZM11.2627 4.40369C13.357 4.40369 15.0127 6.05931 15.0127 8.15369V11.9037C15.0189 12.8736 14.6454 13.8075 13.9719 14.5056C13.2984 15.2036 12.3785 15.6103 11.4089 15.6387C11.3433 15.6349 11.2814 15.6218 11.2139 15.6199C11.137 15.6181 11.062 15.6237 10.9833 15.6237C10.0392 15.5639 9.15382 15.1452 8.50853 14.4536C7.86323 13.7619 7.50693 12.8496 7.51265 11.9037V8.15369C7.51265 6.05931 9.16828 4.40369 11.2627 4.40369ZM23.0564 11.9599L22.5389 12.3537C20.9302 13.5668 19.057 14.7668 17.3958 14.8906L16.5277 14.9581V15.8243C16.5277 16.3962 16.5427 16.9006 16.5539 17.4106L16.5277 17.4556L16.5539 17.4687C16.612 19.7599 16.8314 21.5037 17.5758 22.9399C18.4927 24.7081 20.1595 25.8274 22.7283 26.8662L23.0902 27.0087L23.4502 26.8587C25.9251 25.7918 27.5939 24.8374 28.5558 23.1087C29.5158 21.3818 29.6864 19.1637 29.6864 15.6237V14.8174L28.8914 14.6974C26.9339 14.3974 25.4827 13.5143 23.6077 12.3124L23.0583 11.9618L23.0564 11.9599ZM23.2045 14.1593C24.6164 15.0481 26.0733 15.7437 27.7383 16.1656C27.7083 18.5637 27.5733 20.2924 27.2039 21.4531L18.532 16.4468C20.2945 16.0418 21.8733 15.1437 23.2045 14.1593ZM18.6014 18.6518L26.2177 23.0506C25.5145 23.7106 24.4777 24.2656 23.0208 24.9181C20.9658 24.0349 19.837 23.2343 19.2389 22.0793C18.847 21.3256 18.6952 20.0881 18.6014 18.6518Z" fill="#D48305"/>
</svg>
