<svg width="30" height="31" viewBox="0 0 30 31" fill="none" xmlns="http://www.w3.org/2000/svg">
<g clip-path="url(#clip0_2494_11584)">
<path d="M29.2502 7.35781L27.0885 6.69604C27.0443 6.60781 27.0002 6.51957 26.9561 6.43134L28.0149 4.40193C28.1032 4.22546 28.0591 4.00487 27.9267 3.87252L26.3826 2.3284C26.2502 2.19604 26.0296 2.15193 25.8532 2.24016L23.8238 3.29899C23.7355 3.25487 23.6473 3.21075 23.5149 3.16663L22.8532 1.00487C22.8532 0.828398 22.6767 0.696045 22.5002 0.696045H20.2943C20.1179 0.696045 19.9414 0.828398 19.8532 1.00487L19.1914 3.16663C19.1032 3.21075 19.0149 3.25487 18.8826 3.29899L16.8532 2.24016C16.6767 2.15193 16.4561 2.19604 16.3238 2.3284L14.7796 3.87252C14.6473 4.00487 14.6032 4.22546 14.6914 4.40193L15.7502 6.43134C15.7061 6.51957 15.662 6.60781 15.6179 6.74016L14.2061 7.18134C13.7649 7.0931 12.7502 6.91663 12.3091 6.96075C6.08846 6.51957 0.441406 11.6813 0.441406 18.3431C0.441406 24.696 5.60317 29.8137 11.912 29.8137C18.2208 29.8137 23.3826 24.696 23.3826 18.3431C23.3826 17.549 23.2943 16.7549 23.1179 16.0049L23.5591 14.5931C23.6473 14.549 23.7355 14.5049 23.8238 14.4608L25.8532 15.5196C26.0296 15.6078 26.2502 15.5637 26.3826 15.4313L27.9267 13.8872C28.0591 13.7549 28.1032 13.5343 28.0149 13.3578L26.9561 11.3284C27.0002 11.2402 27.0443 11.1519 27.0885 11.0637L29.2502 10.4019C29.4267 10.3578 29.5591 10.1813 29.5591 9.96075V7.75487C29.5591 7.5784 29.4267 7.40193 29.2502 7.35781ZM20.912 23.946C19.9855 23.6813 19.0149 23.4608 17.9561 23.2843C18.1767 21.8725 18.3091 20.3725 18.3091 18.8284H22.5002C22.412 20.6372 21.8826 22.4019 20.912 23.946ZM16.8532 27.696C17.2502 26.5931 17.5591 25.4019 17.8238 24.1225C18.7502 24.299 19.6326 24.4755 20.4267 24.696C19.412 25.9755 18.2208 26.9902 16.8532 27.696ZM3.44141 24.696C4.23552 24.4755 5.11788 24.299 6.04435 24.1225C6.26494 25.4019 6.61788 26.6372 7.01494 27.696C5.60317 26.9902 4.41199 25.9755 3.44141 24.696ZM6.97082 8.99016C6.57376 10.0931 6.26494 11.2843 6.04435 12.5637C5.11788 12.3872 4.23552 12.2108 3.44141 11.9902C4.36788 10.7549 5.55905 9.74016 6.97082 8.99016ZM15.7061 28.2255C14.4708 28.7108 13.412 28.8431 12.3532 28.8872V23.6372C13.9414 23.6372 15.4414 23.7696 16.8973 23.9902C16.6326 25.5343 16.1914 26.9902 15.7061 28.2255ZM6.9267 23.9902C8.38258 23.7696 9.88258 23.6813 11.4708 23.6372V28.8872C10.412 28.8431 9.35317 28.6666 8.11788 28.2255C7.63258 27.0343 7.19141 25.5784 6.9267 23.9902ZM17.0738 23.1078C15.5738 22.8872 13.9855 22.799 12.3532 22.7549V18.7843H17.4267C17.3826 20.2843 17.2502 21.7402 17.0738 23.1078ZM11.4708 22.7549C9.83846 22.7549 8.25023 22.8872 6.75023 23.1078C6.52964 21.7402 6.39729 20.2843 6.39729 18.7843H11.4708V22.7549ZM6.39729 17.9019C6.39729 16.4019 6.52964 14.946 6.75023 13.5784C8.25023 13.799 9.83846 13.8872 11.4708 13.9313V17.9019H6.39729ZM6.9267 12.696C7.23552 11.1078 7.63258 9.65193 8.16199 8.46075C9.30905 8.01957 10.412 7.8431 11.5149 7.79899V13.049C9.88258 13.0049 8.38258 12.9166 6.9267 12.696ZM2.91199 12.7402C3.83846 13.0049 4.80905 13.2255 5.86788 13.4019C5.64729 14.8137 5.51494 16.3137 5.51494 17.8578H1.32376C1.41199 16.049 1.94141 14.2843 2.91199 12.7402ZM5.51494 18.7843C5.51494 20.3284 5.64729 21.8284 5.86788 23.2402C4.80905 23.4166 3.79435 23.6372 2.91199 23.9019C1.94141 22.4019 1.41199 20.6372 1.32376 18.7843H5.51494ZM22.412 17.0196C22.4561 17.3284 22.4561 17.5931 22.5002 17.9019H18.3091C18.3091 16.8431 18.2208 15.8284 18.1326 14.8578L18.9267 14.4166C19.0149 14.4608 19.1032 14.5049 19.2355 14.549L19.8973 16.7108C19.9414 16.8872 20.1179 17.0196 20.3385 17.0196H22.412ZM17.2502 15.299C17.3385 16.1372 17.3826 17.0196 17.3826 17.9019H12.3532V13.9313C13.1914 13.9313 13.9855 13.8872 14.8238 13.8431L14.8679 13.8872L16.412 15.4313C16.5443 15.5637 16.7649 15.6078 16.9414 15.5196L17.2502 15.299ZM15.0002 12.9166C14.1179 13.0049 13.2355 13.049 12.3532 13.049V7.75487C12.6179 7.75487 12.6179 7.75487 13.2355 7.8431V9.96075C13.2355 10.1372 13.3679 10.3137 13.5443 10.4019L15.7061 11.0637C15.7502 11.1519 15.7943 11.2402 15.8385 11.3725L15.0002 12.9166ZM28.6767 9.60781L26.6032 10.2696C26.4708 10.3137 26.3385 10.4019 26.2943 10.5343C26.2502 10.7108 26.162 10.9313 26.0296 11.1519C25.9855 11.2843 25.9855 11.4166 26.0296 11.549L27.0443 13.4902L25.9414 14.549L24.0002 13.5343C23.8679 13.4902 23.7355 13.446 23.6032 13.5343C23.4267 13.6225 23.2061 13.7108 23.0296 13.799C22.8973 13.8431 22.8091 13.9313 22.7649 14.1078L22.1473 16.1372H20.6032L19.9414 14.0637C19.8973 13.9313 19.8091 13.799 19.6767 13.7549C19.5002 13.7108 19.2796 13.6225 19.1032 13.4902C18.9708 13.446 18.8385 13.446 18.7061 13.4902L17.4267 14.1519L16.8091 14.5049L15.7061 13.4902L16.7208 11.549C16.7649 11.4166 16.8091 11.2843 16.7208 11.1519C16.6326 10.9313 16.5443 10.7549 16.4561 10.5343C16.412 10.4019 16.3238 10.3137 16.1473 10.2696L14.1179 9.60781V8.06369L16.1914 7.40193C16.3238 7.35781 16.4561 7.26957 16.5002 7.13722C16.5443 6.96075 16.6326 6.74016 16.7649 6.51957C16.8091 6.38722 16.8091 6.25487 16.7649 6.12252L15.7502 4.18134L16.8091 3.12252L18.7502 4.13722C18.8385 4.22546 18.9708 4.22546 19.1032 4.18134C19.3238 4.0931 19.5002 4.00487 19.7208 3.91663C19.8532 3.87252 19.9414 3.78428 19.9855 3.65193L20.6473 1.5784H22.1914L22.8532 3.65193C22.8532 3.78428 22.9414 3.87252 23.0738 3.91663C23.2943 3.96075 23.4708 4.04899 23.6473 4.18134C23.8238 4.22546 23.9561 4.22546 24.0885 4.18134L25.9855 3.16663L27.0885 4.22546L26.0738 6.16663C26.0296 6.29899 25.9855 6.43134 26.0738 6.56369C26.162 6.78428 26.2502 6.96075 26.3385 7.18134C26.3826 7.31369 26.4708 7.40193 26.6473 7.44604L28.7208 8.10781V9.60781H28.6767Z" fill="#37C5BC" stroke="#37C5BC"/>
<path d="M21.3957 5.06372C19.278 5.06372 17.6016 6.78431 17.6016 8.85784C17.6016 10.9314 19.3222 12.652 21.3957 12.652C23.4692 12.652 25.1898 10.9314 25.1898 8.85784C25.1898 6.78431 23.5133 5.06372 21.3957 5.06372ZM21.3957 11.7696C19.7633 11.7696 18.4839 10.4461 18.4839 8.85784C18.4839 7.2696 19.8074 5.94607 21.3957 5.94607C22.9839 5.94607 24.3074 7.2696 24.3074 8.85784C24.3074 10.4461 23.028 11.7696 21.3957 11.7696Z" fill="#37C5BC" stroke="#37C5BC"/>
</g>
<defs>
<clipPath id="clip0_2494_11584">
<rect width="30" height="30" fill="white" transform="translate(0 0.254883)"/>
</clipPath>
</defs>
</svg>
