<svg width="30" height="31" viewBox="0 0 30 31" fill="none" xmlns="http://www.w3.org/2000/svg">
<path fill-rule="evenodd" clip-rule="evenodd" d="M25 8.12744H5C3.61929 8.12744 2.5 9.24673 2.5 10.6274V20.6274C2.5 22.0082 3.61929 23.1274 5 23.1274H25C26.3807 23.1274 27.5 22.0082 27.5 20.6274V10.6274C27.5 9.24673 26.3807 8.12744 25 8.12744ZM5 5.62744C2.23858 5.62744 0 7.86602 0 10.6274V20.6274C0 23.3889 2.23858 25.6274 5 25.6274H25C27.7614 25.6274 30 23.3889 30 20.6274V10.6274C30 7.86602 27.7614 5.62744 25 5.62744H5Z" fill="#D27BF1"/>
<path d="M28.75 13.1274C28.75 13.8178 28.1904 14.3774 27.5 14.3774C24.0482 14.3774 21.25 11.5792 21.25 8.12744C21.25 7.43709 21.8096 6.87744 22.5 6.87744C23.1904 6.87744 23.75 7.43709 23.75 8.12744C23.75 10.1985 25.4289 11.8774 27.5 11.8774C28.1904 11.8774 28.75 12.4371 28.75 13.1274Z" fill="#D27BF1"/>
<path d="M2.5 16.8774C1.80964 16.8774 1.25 17.4371 1.25 18.1274C1.25 18.8178 1.80964 19.3774 2.5 19.3774C4.57107 19.3774 6.25 21.0564 6.25 23.1274C6.25 23.8178 6.80964 24.3774 7.5 24.3774C8.19036 24.3774 8.75 23.8178 8.75 23.1274C8.75 19.6757 5.95178 16.8774 2.5 16.8774Z" fill="#D27BF1"/>
<path d="M27.5 16.8774C28.1904 16.8774 28.75 17.4371 28.75 18.1274C28.75 18.8178 28.1904 19.3774 27.5 19.3774C25.4289 19.3774 23.75 21.0564 23.75 23.1274C23.75 23.8178 23.1904 24.3774 22.5 24.3774C21.8096 24.3774 21.25 23.8178 21.25 23.1274C21.25 19.6757 24.0482 16.8774 27.5 16.8774Z" fill="#D27BF1"/>
<path d="M2.5 14.3774C1.80964 14.3774 1.25 13.8178 1.25 13.1274C1.25 12.4371 1.80964 11.8774 2.5 11.8774C4.57107 11.8774 6.25 10.1985 6.25 8.12744C6.25 7.43709 6.80964 6.87744 7.5 6.87744C8.19036 6.87744 8.75 7.43709 8.75 8.12744C8.75 11.5792 5.95178 14.3774 2.5 14.3774Z" fill="#D27BF1"/>
<path fill-rule="evenodd" clip-rule="evenodd" d="M15 18.1274C16.3807 18.1274 17.5 17.0082 17.5 15.6274C17.5 14.2467 16.3807 13.1274 15 13.1274C13.6193 13.1274 12.5 14.2467 12.5 15.6274C12.5 17.0082 13.6193 18.1274 15 18.1274ZM15 20.6274C17.7614 20.6274 20 18.3889 20 15.6274C20 12.866 17.7614 10.6274 15 10.6274C12.2386 10.6274 10 12.866 10 15.6274C10 18.3889 12.2386 20.6274 15 20.6274Z" fill="#D27BF1"/>
</svg>
